<svg width="140" height="40" viewBox="0 0 140 40" fill="none" xmlns="http://www.w3.org/2000/svg">
<g clip-path="url(#clip0_1_18)">
<path d="M50.6998 25.8253C52.5813 25.8253 54.0413 25.3223 55.08 24.3163C56.1186 23.3103 56.6379 21.8937 56.6379 20.0666C56.6379 18.2504 56.1186 16.8393 55.08 15.8333C54.0413 14.8273 52.5813 14.3242 50.6998 14.3242H47.4697C47.1543 14.3242 46.9069 14.4113 46.7274 14.5853C46.548 14.7593 46.4583 15.004 46.4583 15.3194V24.8302C46.4583 25.1456 46.548 25.3903 46.7274 25.5643C46.9069 25.7383 47.1543 25.8253 47.4697 25.8253H50.6998ZM50.5693 24.1124H48.5627V16.0372H50.5693C53.2121 16.0372 54.5335 17.3803 54.5335 20.0666C54.5335 22.7638 53.2121 24.1124 50.5693 24.1124ZM62.315 25.9558C62.7392 25.9558 63.1851 25.8933 63.6527 25.7682C64.1204 25.6431 64.5391 25.4773 64.9089 25.2706C65.3113 25.0423 65.5125 24.7595 65.5125 24.4223C65.5125 24.1831 65.4554 23.9928 65.3412 23.8514C65.227 23.71 65.0775 23.6393 64.8926 23.6393C64.7403 23.6393 64.501 23.7263 64.1748 23.9003C63.8376 24.0526 63.5358 24.1722 63.2694 24.2592C63.0029 24.3462 62.6957 24.3897 62.3477 24.3897C61.6625 24.3897 61.1405 24.213 60.7816 23.8595C60.4227 23.5061 60.2106 22.9541 60.1453 22.2037H64.9578C65.3711 22.2037 65.5777 21.9699 65.5777 21.5022C65.5777 20.7192 65.4309 20.0394 65.1373 19.463C64.8436 18.8866 64.4304 18.4407 63.8974 18.1253C63.3645 17.8099 62.7392 17.6522 62.0214 17.6522C61.271 17.6522 60.5994 17.8262 60.0067 18.1742C59.4139 18.5223 58.9544 19.0117 58.6282 19.6425C58.3019 20.2733 58.1388 20.9965 58.1388 21.8122C58.1388 23.0955 58.514 24.1069 59.2644 24.8465C60.0148 25.586 61.0317 25.9558 62.315 25.9558ZM63.8322 21.1107H60.1453C60.2106 20.4581 60.4091 19.9579 60.7408 19.6098C61.0725 19.2618 61.5157 19.0878 62.0703 19.0878C62.6141 19.0878 63.0383 19.2591 63.3428 19.6017C63.6473 19.9443 63.8104 20.4473 63.8322 21.1107ZM70.1292 25.9558C71.1515 25.9558 71.9699 25.7329 72.5844 25.287C73.1989 24.8411 73.5061 24.2483 73.5061 23.5088C73.5061 23.052 73.4164 22.6768 73.237 22.3831C73.0575 22.0895 72.7612 21.8448 72.3479 21.649C71.9346 21.4533 71.3636 21.2793 70.6349 21.127C69.9498 20.9856 69.4876 20.8442 69.2483 20.7029C69.009 20.5615 68.8894 20.3548 68.8894 20.0829C68.8894 19.8002 69.0063 19.5772 69.2401 19.4141C69.474 19.2509 69.7921 19.1694 70.1945 19.1694C70.5316 19.1694 70.8144 19.2102 71.0428 19.2917C71.2712 19.3733 71.5431 19.4956 71.8585 19.6588C72.0325 19.7567 72.1766 19.8301 72.2908 19.879C72.405 19.928 72.5219 19.9524 72.6415 19.9524C72.8155 19.9524 72.9623 19.879 73.082 19.7322C73.2016 19.5854 73.2614 19.4032 73.2614 19.1857C73.2614 18.8268 73.0874 18.5386 72.7394 18.3211C72.4023 18.1036 72.0216 17.9377 71.5974 17.8235C71.1733 17.7093 70.7328 17.6522 70.2761 17.6522C69.6453 17.6522 69.0824 17.7583 68.5876 17.9703C68.0928 18.1824 67.7039 18.4815 67.4212 18.8676C67.1384 19.2537 66.997 19.686 66.997 20.1645C66.997 20.7953 67.2064 21.2901 67.6251 21.649C68.0438 22.0079 68.7371 22.2853 69.7051 22.481C70.2489 22.6007 70.654 22.7067 70.9204 22.7991C71.1869 22.8916 71.3718 22.9922 71.4751 23.1009C71.5784 23.2097 71.6301 23.3565 71.6301 23.5414C71.6301 23.8133 71.5023 24.0254 71.2467 24.1776C70.9911 24.3299 70.6349 24.406 70.1782 24.406C69.7323 24.406 69.3652 24.3625 69.077 24.2755C68.7888 24.1885 68.4707 24.0634 68.1227 23.9003C67.7964 23.7263 67.5408 23.6393 67.3559 23.6393C67.1819 23.6393 67.0351 23.7073 66.9155 23.8432C66.7958 23.9792 66.736 24.1559 66.736 24.3734C66.736 24.7541 66.91 25.0477 67.258 25.2543C67.9867 25.722 68.9438 25.9558 70.1292 25.9558ZM76.1652 16.2329C76.535 16.2329 76.8287 16.1323 77.0462 15.9311C77.2637 15.7299 77.3724 15.4662 77.3724 15.1399C77.3724 14.8137 77.261 14.5526 77.038 14.3569C76.8151 14.1611 76.5241 14.0632 76.1652 14.0632C75.7955 14.0632 75.5018 14.1611 75.2843 14.3569C75.0668 14.5526 74.958 14.8137 74.958 15.1399C74.958 15.4662 75.0668 15.7299 75.2843 15.9311C75.5018 16.1323 75.7955 16.2329 76.1652 16.2329ZM76.1652 25.9232C76.4589 25.9232 76.7036 25.8389 76.8994 25.6703C77.0951 25.5018 77.193 25.2598 77.193 24.9444V18.6473C77.193 18.3319 77.0951 18.0927 76.8994 17.9295C76.7036 17.7664 76.4589 17.6848 76.1652 17.6848C75.8716 17.6848 75.6296 17.7664 75.4393 17.9295C75.249 18.0927 75.1538 18.3319 75.1538 18.6473V24.9444C75.1538 25.2598 75.249 25.5018 75.4393 25.6703C75.6296 25.8389 75.8716 25.9232 76.1652 25.9232ZM82.9354 28.8923C84.2948 28.8923 85.3226 28.5714 86.0186 27.9298C86.7147 27.2881 87.0627 26.3419 87.0627 25.0912V18.6473C87.0627 18.3537 86.9703 18.1199 86.7854 17.9459C86.6005 17.7718 86.3558 17.6848 86.0513 17.6848C85.7467 17.6848 85.502 17.7718 85.3172 17.9459C85.1323 18.1199 85.0398 18.3483 85.0398 18.631V19.0552C84.8006 18.6093 84.4525 18.264 83.9958 18.0193C83.539 17.7746 83.0169 17.6522 82.4297 17.6522C81.7336 17.6522 81.1137 17.8181 80.5699 18.1498C80.0261 18.4815 79.6047 18.9491 79.3056 19.5527C79.0065 20.1563 78.857 20.8497 78.857 21.6327C78.857 22.4158 79.0092 23.1064 79.3138 23.7045C79.6183 24.3027 80.0397 24.7676 80.5781 25.0994C81.1164 25.4311 81.7336 25.5969 82.4297 25.5969C83.0169 25.5969 83.539 25.4746 83.9958 25.2299C84.4525 24.9852 84.8006 24.6399 85.0398 24.194V25.238C85.0398 26.6301 84.3275 27.3262 82.9027 27.3262C82.5003 27.3262 82.1442 27.2827 81.8342 27.1956C81.5243 27.1086 81.1735 26.9836 80.782 26.8204C80.6297 26.7552 80.4829 26.6981 80.3415 26.6491C80.2001 26.6002 80.0805 26.5757 79.9826 26.5757C79.7977 26.5757 79.6482 26.6464 79.534 26.7878C79.4198 26.9292 79.3627 27.1195 79.3627 27.3588C79.3627 27.6959 79.5639 27.9841 79.9663 28.2234C80.7602 28.6693 81.7499 28.8923 82.9354 28.8923ZM82.968 24.0145C82.3263 24.0145 81.8206 23.8024 81.4508 23.3783C81.0811 22.9541 80.8962 22.3723 80.8962 21.6327C80.8962 20.8823 81.0811 20.295 81.4508 19.8709C81.8206 19.4467 82.3263 19.2346 82.968 19.2346C83.6205 19.2346 84.129 19.4467 84.4933 19.8709C84.8577 20.295 85.0398 20.8823 85.0398 21.6327C85.0398 22.3723 84.8577 22.9541 84.4933 23.3783C84.129 23.8024 83.6205 24.0145 82.968 24.0145ZM95.6273 25.9232C95.9427 25.9232 96.1901 25.8362 96.3696 25.6622C96.549 25.4882 96.6388 25.2489 96.6388 24.9444V20.9312C96.6388 19.8328 96.4049 19.0117 95.9373 18.4679C95.4696 17.9241 94.7573 17.6522 93.8002 17.6522C93.2238 17.6522 92.7072 17.7718 92.2504 18.0111C91.7936 18.2504 91.4293 18.593 91.1574 19.0389V18.5984C91.1574 18.3265 91.0677 18.1063 90.8882 17.9377C90.7088 17.7691 90.4777 17.6848 90.1949 17.6848C89.8795 17.6848 89.6294 17.7718 89.4445 17.9459C89.2596 18.1199 89.1671 18.3483 89.1671 18.631V24.9444C89.1671 25.2489 89.2569 25.4882 89.4363 25.6622C89.6158 25.8362 89.8632 25.9232 90.1786 25.9232C90.494 25.9232 90.7441 25.8362 90.929 25.6622C91.1139 25.4882 91.2063 25.2489 91.2063 24.9444V21.3065C91.2063 20.6865 91.3831 20.1917 91.7365 19.8219C92.09 19.4521 92.5604 19.2673 93.1477 19.2673C93.6479 19.2673 94.015 19.4086 94.2488 19.6914C94.4827 19.9742 94.5996 20.4255 94.5996 21.0454V24.9444C94.5996 25.2489 94.692 25.4882 94.8769 25.6622C95.0618 25.8362 95.3119 25.9232 95.6273 25.9232ZM107.553 25.8253C109.434 25.8253 110.894 25.3223 111.933 24.3163C112.971 23.3103 113.491 21.8937 113.491 20.0666C113.491 18.2504 112.971 16.8393 111.933 15.8333C110.894 14.8273 109.434 14.3242 107.553 14.3242H104.322C104.007 14.3242 103.76 14.4113 103.58 14.5853C103.401 14.7593 103.311 15.004 103.311 15.3194V24.8302C103.311 25.1456 103.401 25.3903 103.58 25.5643C103.76 25.7383 104.007 25.8253 104.322 25.8253H107.553ZM107.422 24.1124H105.415V16.0372H107.422C110.065 16.0372 111.386 17.3803 111.386 20.0666C111.386 22.7638 110.065 24.1124 107.422 24.1124ZM117.977 25.9558C118.499 25.9558 118.958 25.8362 119.355 25.5969C119.752 25.3577 120.043 25.0259 120.228 24.6018V24.9607C120.228 25.2435 120.318 25.4718 120.497 25.6459C120.677 25.8199 120.908 25.9069 121.191 25.9069C121.495 25.9069 121.734 25.8226 121.908 25.654C122.082 25.4854 122.169 25.2543 122.169 24.9607V20.9802C122.169 19.86 121.9 19.0253 121.362 18.476C120.824 17.9268 120 17.6522 118.89 17.6522C118.379 17.6522 117.86 17.712 117.333 17.8317C116.805 17.9513 116.351 18.1144 115.97 18.3211C115.753 18.4407 115.598 18.5685 115.505 18.7044C115.413 18.8404 115.367 19.0008 115.367 19.1857C115.367 19.4141 115.429 19.599 115.554 19.7404C115.679 19.8817 115.84 19.9524 116.036 19.9524C116.166 19.9524 116.373 19.8817 116.656 19.7404C117.101 19.5663 117.487 19.4331 117.814 19.3407C118.14 19.2482 118.461 19.202 118.776 19.202C119.287 19.202 119.657 19.3244 119.886 19.5691C120.114 19.8138 120.228 20.2026 120.228 20.7355V21.1107H119.82C118.635 21.1107 117.705 21.1868 117.031 21.3391C116.356 21.4913 115.87 21.736 115.571 22.0732C115.272 22.4103 115.122 22.8726 115.122 23.4598C115.122 23.9275 115.247 24.3517 115.497 24.7323C115.747 25.1129 116.09 25.412 116.525 25.6295C116.96 25.8471 117.444 25.9558 117.977 25.9558ZM118.385 24.4876C118.026 24.4876 117.724 24.3761 117.479 24.1532C117.235 23.9302 117.112 23.6447 117.112 23.2967C117.112 23.0139 117.199 22.791 117.373 22.6279C117.547 22.4647 117.836 22.3505 118.238 22.2853C118.64 22.22 119.206 22.1874 119.935 22.1874H120.228V22.53C120.228 23.1064 120.057 23.5768 119.714 23.9411C119.372 24.3054 118.929 24.4876 118.385 24.4876ZM125.253 16.2329C125.623 16.2329 125.916 16.1323 126.134 15.9311C126.351 15.7299 126.46 15.4662 126.46 15.1399C126.46 14.8137 126.348 14.5526 126.126 14.3569C125.903 14.1611 125.612 14.0632 125.253 14.0632C124.883 14.0632 124.589 14.1611 124.372 14.3569C124.154 14.5526 124.046 14.8137 124.046 15.1399C124.046 15.4662 124.154 15.7299 124.372 15.9311C124.589 16.1323 124.883 16.2329 125.253 16.2329ZM125.253 25.9232C125.546 25.9232 125.791 25.8389 125.987 25.6703C126.183 25.5018 126.281 25.2598 126.281 24.9444V18.6473C126.281 18.3319 126.183 18.0927 125.987 17.9295C125.791 17.7664 125.546 17.6848 125.253 17.6848C124.959 17.6848 124.717 17.7664 124.527 17.9295C124.336 18.0927 124.241 18.3319 124.241 18.6473V24.9444C124.241 25.2598 124.336 25.5018 124.527 25.6703C124.717 25.8389 124.959 25.9232 125.253 25.9232ZM129.396 25.9232C129.69 25.9232 129.935 25.8389 130.13 25.6703C130.326 25.5018 130.424 25.2598 130.424 24.9444V15.2052C130.424 14.8898 130.326 14.6505 130.13 14.4874C129.935 14.3242 129.69 14.2427 129.396 14.2427C129.103 14.2427 128.861 14.3242 128.67 14.4874C128.48 14.6505 128.385 14.8898 128.385 15.2052V24.9444C128.385 25.2598 128.48 25.5018 128.67 25.6703C128.861 25.8389 129.103 25.9232 129.396 25.9232ZM134.486 28.8433C134.878 28.8433 135.166 28.6584 135.351 28.2887L139.804 18.9573C139.87 18.8268 139.902 18.7017 139.902 18.5821C139.902 18.3319 139.802 18.1226 139.601 17.954C139.399 17.7854 139.174 17.7012 138.924 17.7012C138.749 17.7012 138.589 17.7474 138.442 17.8398C138.295 17.9323 138.179 18.0764 138.092 18.2721L135.824 23.2967L133.54 18.2558C133.453 18.0601 133.333 17.916 133.181 17.8235C133.029 17.7311 132.86 17.6848 132.675 17.6848C132.404 17.6848 132.162 17.7718 131.949 17.9459C131.737 18.1199 131.631 18.3319 131.631 18.5821C131.631 18.7235 131.659 18.8485 131.713 18.9573L134.747 25.2706L133.638 27.6035C133.573 27.7557 133.54 27.8917 133.54 28.0113C133.54 28.2506 133.635 28.4491 133.826 28.6068C134.016 28.7645 134.236 28.8433 134.486 28.8433Z" fill="#242E4C"/>
<path d="M2.21006 7.73208C7.45209 -1.34738 21.3086 -1.78874 30.388 3.45329C39.4675 8.69531 42.5783 20.3052 37.3363 29.3846C32.0943 38.4641 19.8912 42.7834 10.8118 37.5414C1.7323 32.2994 -3.03196 16.8115 2.21006 7.73208ZM22.0444 13.3232C21.6716 13.3232 21.376 13.4356 21.1575 13.6606C20.9702 13.8534 20.8632 14.1005 20.8365 14.4019L20.8298 14.5571V21.652C20.8298 22.8088 20.5534 23.6892 20.0007 24.2933C19.4481 24.8974 18.6447 25.1994 17.5908 25.1994C16.524 25.1994 15.7142 24.9006 15.1615 24.3029C14.6514 23.7512 14.3767 22.9559 14.3374 21.9168L14.3325 21.652V14.5571C14.3325 14.1843 14.2233 13.8855 14.0048 13.6606C13.7863 13.4356 13.4906 13.3232 13.1179 13.3232C12.7452 13.3232 12.4495 13.4356 12.231 13.6606C12.0437 13.8534 11.9367 14.1005 11.91 14.4019L11.9033 14.5571V21.517C11.9033 23.3679 12.3853 24.7753 13.3493 25.7393C14.3132 26.7033 15.7271 27.1853 17.5908 27.1853C19.4416 27.1853 20.849 26.7 21.813 25.7296C22.7203 24.8163 23.2006 23.5187 23.254 21.8369L23.259 21.517V14.5571C23.259 14.1843 23.1497 13.8855 22.9312 13.6606C22.7127 13.4356 22.4171 13.3232 22.0444 13.3232ZM27.3463 13.3232C26.9735 13.3232 26.6747 13.4356 26.4498 13.6606C26.257 13.8534 26.1468 14.1005 26.1193 14.4019L26.1124 14.5571V25.8742C26.1124 26.247 26.2249 26.549 26.4498 26.7804C26.6747 27.0117 26.9735 27.1274 27.3463 27.1274C27.7319 27.1274 28.0371 27.0117 28.2621 26.7804C28.4549 26.5821 28.565 26.3318 28.5926 26.0297L28.5995 25.8742V14.5571C28.5995 14.1843 28.487 13.8855 28.2621 13.6606C28.0371 13.4356 27.7319 13.3232 27.3463 13.3232Z" fill="#242E4C"/>
</g>
<defs>
<clipPath id="clip0_1_18">
<rect width="140" height="40" fill="white"/>
</clipPath>
</defs>
</svg>
